# xmcd
#
# Track frame offsets:
#	150
#	16874
#	26303
#	37480
#	47384
#	57154
#	66639
#	79696
#	92132
#	102046
#	112252
#	123972
#	135328
#	145403
#	155333
#	168732
#
# Disc length: 2381 seconds
#
# Revision: 1
# Processed by: cddbd v1.5.1PL2 Copyright (c) Steve Scherf et al.
# Submitted via: audiograbber 1.83.01
#
DISCID=d8094b10
DTITLE=Verschiedene - The Country Club Collection - Country Stars
DYEAR=2006
DGENRE=Country
TTITLE0=Ferlin Husky - Giddyup Go
TTITLE1=Charlie Rich - Lonely Weekends
TTITLE2=Razzy Bailey - 9 999 999 Tears
TTITLE3=Johnny Cash - Hey Porter
TTITLE4=Kenny Rogers - Once Again She's All Alone
TTITLE5=Frankie Lane - Blazing Saddles
TTITLE6=Freddy Fender - Something On Your Mind
TTITLE7=Gene Autry - Take Me Back In your Arms
TTITLE8=Hank Locklin - We're Gonna Go Fishing
TTITLE9=Jim Reeves - Just Call Me Lonesome
TTITLE10=Barbara Fairchild - You Can't Put The City In A Country Girl
TTITLE11=Donna Fargo - Superman
TTITLE12=Porter Wagoner - The Green Green Gras of Home
TTITLE13=Don Gibson - Lonesome Number One
TTITLE14=Roy Rogers - Saddle Serenade
TTITLE15=Willie Nelson - Pride Wins Again
EXTD=
EXTT0=
EXTT1=
EXTT2=
EXTT3=
EXTT4=
EXTT5=
EXTT6=
EXTT7=
EXTT8=
EXTT9=
EXTT10=
EXTT11=
EXTT12=
EXTT13=
EXTT14=
EXTT15=
PLAYORDER=
